<svg width="1747" height="783" viewBox="0 0 1747 783" fill="none" xmlns="http://www.w3.org/2000/svg">
<path d="M199.13 2.65984C122.095 -3.32488 1 2.65997 1 2.65997C1 653.525 5.03375 746.71 1 783H1746V155.805V2.65984C1717.97 31.7917 1551.3 91.738 1551.3 91.738C1551.3 91.738 1416.08 141.198 1323.96 155.805C1198.73 175.661 1124.57 164.047 997.452 155.805C830.16 144.958 574.806 91.738 574.806 91.738C574.806 91.738 351.087 14.4651 199.13 2.65984Z" fill="#445BA8" fill-opacity="0.64"/>
<path d="M195.056 3.51893C119.191 -2.14872 76.1742 3.51902 0 3.51902V779H1747V115.016C1719.86 131.909 1677.9 141.857 1632.15 156.015C1534.64 186.186 1477.35 200.623 1374.02 211.094C1214.4 227.27 1121.71 207.842 963.57 183.675C797.63 158.316 549.489 81.5171 549.489 81.5171C549.489 81.5171 337.706 14.1758 195.056 3.51893Z" fill="#445BA8"/>
</svg>
