<svg width="103" height="289" viewBox="0 0 103 289" fill="none" xmlns="http://www.w3.org/2000/svg">
<path d="M-105.916 1.19917C-104.956 0.789708 -103.992 0.389944 -103.022 0H9.02191C9.99156 0.389944 10.9562 0.789708 11.9157 1.19917H-105.916Z" fill="#3B82F6"/>
<path d="M-128.462 13.1909C-127.837 12.7866 -127.209 12.3869 -126.577 11.9917H32.5771C33.2085 12.3869 33.8368 12.7866 34.4618 13.1909H-128.462Z" fill="#3B82F6"/>
<path d="M-143.122 23.9834C-143.597 24.3802 -144.071 24.78 -144.542 25.1826H50.5417C50.0709 24.78 49.5975 24.3802 49.1216 23.9834H-143.122Z" fill="#3B82F6"/>
<path d="M-157.038 37.1743C-156.665 36.7725 -156.289 36.3728 -155.912 35.9751H61.9118C62.2893 36.3728 62.6648 36.7725 63.038 37.1743H-157.038Z" fill="#3B82F6"/>
<path d="M-166.16 47.9668C-166.466 48.365 -166.77 48.7647 -167.071 49.166H-78.811C-77.5448 48.7414 -76.2672 48.3415 -74.979 47.9668H-166.16Z" fill="#3B82F6"/>
<path d="M-19.021 47.9668C-17.7328 48.3415 -16.4552 48.7414 -15.189 49.166H73.0713C72.7695 48.7647 72.4658 48.365 72.1601 47.9668H-19.021Z" fill="#3B82F6"/>
<path d="M-101.216 59.9585H-174.475C-174.723 60.357 -174.97 60.7567 -175.215 61.1577H-103.028C-102.429 60.7516 -101.825 60.3518 -101.216 59.9585Z" fill="#3B82F6"/>
<path d="M9.02808 61.1577C8.42882 60.7516 7.82491 60.3518 7.21646 59.9585H80.4747C80.7232 60.357 80.9699 60.7567 81.2148 61.1577H9.02808Z" fill="#3B82F6"/>
<path d="M-116.346 71.9502H-181.209C-181.409 72.3489 -181.608 72.7486 -181.805 73.1494H-117.57C-117.166 72.7462 -116.757 72.3465 -116.346 71.9502Z" fill="#3B82F6"/>
<path d="M23.5704 73.1494C23.1657 72.7462 22.7575 72.3465 22.3459 71.9502H87.2091C87.4094 72.3489 87.6081 72.7486 87.805 73.1494H23.5704Z" fill="#3B82F6"/>
<path d="M-126.964 83.9419H-186.587C-186.745 84.3408 -186.902 84.7405 -187.056 85.1411H-127.852C-127.559 84.7391 -127.263 84.3393 -126.964 83.9419Z" fill="#3B82F6"/>
<path d="M33.8519 85.1411C33.5587 84.7391 33.2626 84.3393 32.9637 83.9419H92.5871C92.7452 84.3408 92.9017 84.7405 93.0565 85.1411H33.8519Z" fill="#3B82F6"/>
<path d="M-134.712 95.9336H-190.758C-190.878 96.3326 -190.996 96.7324 -191.113 97.1328H-135.36C-135.146 96.7314 -134.93 96.3317 -134.712 95.9336Z" fill="#3B82F6"/>
<path d="M41.3597 97.1328C41.1464 96.7314 40.9304 96.3317 40.7118 95.9336H96.7581C96.878 96.3326 96.9963 96.7324 97.113 97.1328H41.3597Z" fill="#3B82F6"/>
<path d="M-140.295 107.925H-193.824C-193.909 108.324 -193.992 108.724 -194.073 109.124H-140.75C-140.601 108.724 -140.449 108.324 -140.295 107.925Z" fill="#3B82F6"/>
<path d="M46.7504 109.124C46.6011 108.724 46.4494 108.324 46.2952 107.925H99.8245C99.9091 108.324 99.992 108.724 100.073 109.124H46.7504Z" fill="#3B82F6"/>
<path d="M-144.081 119.917H-195.857C-195.909 120.316 -195.958 120.716 -196.006 121.116H-144.37C-144.276 120.716 -144.18 120.316 -144.081 119.917Z" fill="#3B82F6"/>
<path d="M50.3695 121.116C50.2757 120.716 50.1795 120.316 50.0809 119.917H101.857C101.909 120.316 101.958 120.716 102.006 121.116H50.3695Z" fill="#3B82F6"/>
<path d="M-146.276 131.909H-196.906C-196.924 132.308 -196.942 132.708 -196.958 133.108H-146.414C-146.37 132.707 -146.325 132.308 -146.276 131.909Z" fill="#3B82F6"/>
<path d="M52.4137 133.108C52.3703 132.707 52.3245 132.308 52.2764 131.909H102.906C102.924 132.308 102.942 132.708 102.958 133.108H52.4137Z" fill="#3B82F6"/>
<path d="M-147 143.9H-197C-196.987 144.301 -196.973 144.7 -196.958 145.1H-146.994C-146.998 144.734 -147 144.367 -147 144C-147 143.967 -147 143.934 -147 143.9Z" fill="#3B82F6"/>
<path d="M52.9941 145.1C52.998 144.734 53 144.367 53 144C53 143.967 53 143.934 53 143.9H103C102.996 144.022 102.992 144.144 102.988 144.266C102.979 144.544 102.968 144.822 102.958 145.1H52.9941Z" fill="#3B82F6"/>
<path d="M-146.3 155.892H-196.145C-196.1 156.292 -196.054 156.692 -196.006 157.091H-146.151C-146.203 156.692 -146.253 156.293 -146.3 155.892Z" fill="#3B82F6"/>
<path d="M52.1508 157.091C52.203 156.692 52.2528 156.293 52.3002 155.892H102.145C102.1 156.292 102.054 156.692 102.006 157.091H52.1508Z" fill="#3B82F6"/>
<path d="M-144.13 167.884H-194.312C-194.234 168.284 -194.154 168.684 -194.073 169.083H-143.828C-143.931 168.684 -144.032 168.285 -144.13 167.884Z" fill="#3B82F6"/>
<path d="M49.8282 169.083C49.9312 168.684 50.0318 168.285 50.13 167.884H100.312C100.234 168.284 100.154 168.684 100.073 169.083H49.8282Z" fill="#3B82F6"/>
<path d="M-140.372 179.876H-191.457C-191.344 180.276 -191.229 180.676 -191.113 181.075H-139.902C-140.061 180.676 -140.218 180.276 -140.372 179.876Z" fill="#3B82F6"/>
<path d="M45.9021 181.075C46.0612 180.676 46.2179 180.276 46.372 179.876H97.457C97.344 180.276 97.2293 180.676 97.113 181.075H45.9021Z" fill="#3B82F6"/>
<path d="M-134.821 191.867H-187.514C-187.363 192.268 -187.211 192.667 -187.056 193.066H-134.155C-134.38 192.668 -134.602 192.269 -134.821 191.867Z" fill="#3B82F6"/>
<path d="M40.1552 193.066C40.3797 192.668 40.6016 192.269 40.8209 191.867H93.514C93.3632 192.268 93.2107 192.667 93.0565 193.066H40.1552Z" fill="#3B82F6"/>
<path d="M-127.113 203.859H-182.388C-182.195 204.26 -182.001 204.659 -181.805 205.058H-126.202C-126.508 204.661 -126.812 204.261 -127.113 203.859Z" fill="#3B82F6"/>
<path d="M32.2015 205.058C32.5083 204.661 32.8122 204.261 33.1131 203.859H88.3875C88.1951 204.26 88.0009 204.659 87.805 205.058H32.2015Z" fill="#3B82F6"/>
<path d="M-116.552 215.851H-175.939C-175.7 216.252 -175.458 216.651 -175.215 217.05H-115.292C-115.716 216.654 -116.136 216.254 -116.552 215.851Z" fill="#3B82F6"/>
<path d="M21.292 217.05C21.7155 216.654 22.1356 216.254 22.5522 215.851H81.9394C81.6997 216.252 81.4581 216.651 81.2148 217.05H21.292Z" fill="#3B82F6"/>
<path d="M-101.523 227.842H-167.964C-167.668 228.244 -167.371 228.643 -167.071 229.041H-99.6374C-100.271 228.649 -100.899 228.249 -101.523 227.842Z" fill="#3B82F6"/>
<path d="M5.63741 229.041C6.2708 228.649 6.89949 228.249 7.52335 227.842H73.9638C73.6683 228.244 73.3708 228.643 73.0713 229.041H5.63741Z" fill="#3B82F6"/>
<path d="M-75.6548 239.834H-158.14C-157.775 240.236 -157.407 240.635 -157.038 241.033H-71.2753C-72.7483 240.666 -74.2085 240.266 -75.6548 239.834Z" fill="#3B82F6"/>
<path d="M-22.7247 241.033C-21.2517 240.666 -19.7915 240.266 -18.3452 239.834H64.14C63.7748 240.236 63.4075 240.635 63.038 241.033H-22.7247Z" fill="#3B82F6"/>
<path d="M-144.542 253.025C-145.006 252.628 -145.468 252.228 -145.927 251.826H51.9272C51.4678 252.228 51.006 252.628 50.5417 253.025H-144.542Z" fill="#3B82F6"/>
<path d="M-130.287 263.817C-129.682 264.221 -129.073 264.621 -128.462 265.017H34.4618C35.0732 264.621 35.6815 264.221 36.2868 263.817H-130.287Z" fill="#3B82F6"/>
<path d="M-105.916 277.008C-106.832 276.617 -107.743 276.218 -108.65 275.809H14.6496C13.7431 276.218 12.8317 276.617 11.9157 277.008H-105.916Z" fill="#3B82F6"/>
<path d="M-47 289C-40.5386 289 -34.1726 288.592 -27.9264 287.801H-66.0736C-59.8274 288.592 -53.4614 289 -47 289Z" fill="#3B82F6"/>
</svg>
