<svg width="101" height="83" viewBox="0 0 101 83" fill="none" xmlns="http://www.w3.org/2000/svg">
<path d="M24.041 4.01851L24.6774 1.93639L24.9311 2.01395L24.9421 2.04998L24.9956 2.03365L25.049 2.04998L25.06 2.01395L25.3138 1.93639L25.9502 4.01851L25.5786 4.1321L26.215 6.21423L26.5866 6.10063L27.223 8.18276L26.8514 8.29635L27.4878 10.3785L27.8594 10.2649L28.4958 12.347L28.1242 12.4606L28.7606 14.5427L29.1323 14.4291L29.7687 16.5113L29.397 16.6248L30.0335 18.707L30.4051 18.5934L31.0415 20.6755L30.6699 20.7891L30.9881 21.8302L31.0143 21.916L31.0755 21.9816L31.818 22.7777L32.1022 22.5127L33.5872 24.1049L33.303 24.3699L34.7879 25.9621L35.0721 25.6971L36.5571 27.2893L36.2729 27.5544L37.7579 29.1466L38.0421 28.8815L39.527 30.4737L39.2428 30.7388L40.7278 32.331L41.012 32.0659L42.497 33.6582L42.2128 33.9232L43.6977 35.5154L43.9819 35.2504L45.4669 36.8426L45.2728 37.0236L45.2361 37.0151L45.2235 37.0695L45.1827 37.1076L45.2084 37.1352L45.1487 37.3937L43.0273 36.9038L43.1147 36.5252L40.9934 36.0353L40.9059 36.4139L38.7845 35.924L38.872 35.5454L36.7506 35.0554L36.6632 35.4341L34.5418 34.9442L34.6292 34.5655L32.5078 34.0756L32.4204 34.4543L30.299 33.9644L30.3865 33.5857L28.2651 33.0958L28.1776 33.4744L26.0563 32.9845L26.1437 32.6059L25.083 32.3609L24.9956 32.3407L24.9081 32.3609L23.8474 32.6059L23.9349 32.9845L21.8135 33.4744L21.7261 33.0958L19.6047 33.5857L19.6921 33.9644L17.5707 34.4543L17.4833 34.0756L15.3619 34.5655L15.4494 34.9442L13.328 35.4341L13.2405 35.0554L11.1192 35.5453L11.2066 35.924L9.08523 36.4139L8.99779 36.0353L6.87641 36.5252L6.96385 36.9038L4.84247 37.3937L4.78276 37.1352L4.80846 37.1076L4.7676 37.0695L4.75503 37.0151L4.71832 37.0236L4.52427 36.8426L6.00923 35.2504L6.29343 35.5154L7.77839 33.9232L7.4942 33.6582L8.97916 32.0659L9.26336 32.331L10.7483 30.7388L10.4641 30.4737L11.9491 28.8815L12.2333 29.1466L13.7183 27.5544L13.4341 27.2893L14.919 25.6971L15.2032 25.9621L16.6882 24.3699L16.404 24.1049L17.889 22.5127L18.1731 22.7777L18.9156 21.9816L18.9768 21.916L19.0031 21.8302L19.3213 20.7891L18.9496 20.6755L19.5861 18.5934L19.9577 18.707L20.5941 16.6248L20.2225 16.5113L20.8589 14.4291L21.2305 14.5427L21.8669 12.4606L21.4953 12.347L22.1317 10.2649L22.5034 10.3785L23.1398 8.29635L22.7681 8.18276L23.4045 6.10063L23.7762 6.21423L24.4126 4.1321L24.041 4.01851Z" fill="#BFDBFE" stroke="white" stroke-width="0.777224" stroke-dasharray="2.33 2.33"/>
<path d="M55.1206 77.5675L46.7406 69.7519L35.782 66.4023L46.7406 63.0528L55.1206 55.2372L52.5422 66.4023L55.1206 77.5675Z" fill="#BFDBFE"/>
<path fill-rule="evenodd" clip-rule="evenodd" d="M54.1859 66.4023L57.8603 50.492L45.9187 61.6292L30.3027 66.4023L45.9187 71.1755L57.8603 82.3127L54.1859 66.4023ZM52.9612 66.4023L55.819 78.7771L46.5311 70.1148L34.3854 66.4023L46.5311 62.6899L55.819 54.0276L52.9612 66.4023Z" fill="#BFDBFE"/>
<path d="M68.8779 15.5034L77.1003 23.172L77.3628 23.4168L77.7062 23.5218L88.4586 26.8083L77.7062 30.0948L77.3628 30.1998L77.1003 30.4446L68.8779 38.1132L71.4079 27.1581L71.4886 26.8083L71.4079 26.4585L68.8779 15.5034Z" fill="#BFDBFE" stroke="#EFF6FF" stroke-width="3.1089"/>
</svg>
